<svg width="23" height="25" viewBox="0 0 23 25" fill="none" xmlns="http://www.w3.org/2000/svg">
<path d="M15.1016 19.5888L15.1016 9.83284C15.1016 9.77166 15.0913 9.71107 15.0711 9.65454C15.051 9.59801 15.0215 9.54664 14.9842 9.50338C14.947 9.46012 14.9028 9.42581 14.8541 9.40242C14.8054 9.37903 14.7533 9.36702 14.7006 9.36707L13.5025 9.36707C13.4498 9.36702 13.3977 9.37903 13.349 9.40242C13.3004 9.42581 13.2561 9.46012 13.2189 9.50338C13.1817 9.54664 13.1521 9.59801 13.132 9.65454C13.1119 9.71107 13.1015 9.77166 13.1016 9.83284L13.1016 19.5888C13.1015 19.65 13.1119 19.7106 13.132 19.7671C13.1521 19.8236 13.1817 19.875 13.2189 19.9182C13.2561 19.9615 13.3004 19.9958 13.349 20.0192C13.3977 20.0426 13.4498 20.0546 13.5025 20.0546L14.7006 20.0546C14.7533 20.0546 14.8054 20.0426 14.8541 20.0192C14.9028 19.9958 14.947 19.9615 14.9842 19.9182C15.0215 19.875 15.051 19.8236 15.0711 19.7671C15.0913 19.7106 15.1016 19.65 15.1016 19.5888ZM7.10157 19.5888L7.10157 9.83284C7.10161 9.77166 7.09126 9.71107 7.07113 9.65454C7.051 9.59801 7.02146 9.54664 6.98423 9.50338C6.94699 9.46012 6.90277 9.42581 6.85411 9.40242C6.80545 9.37903 6.75329 9.36702 6.70063 9.36707L5.5025 9.36707C5.44984 9.36702 5.39769 9.37903 5.34902 9.40242C5.30036 9.42581 5.25614 9.46012 5.21891 9.50338C5.18167 9.54664 5.15214 9.59801 5.132 9.65454C5.11187 9.71107 5.10152 9.77166 5.10157 9.83284L5.10157 19.5888C5.10153 19.65 5.11187 19.7106 5.132 19.7671C5.15214 19.8236 5.18167 19.875 5.21891 19.9182C5.25615 19.9615 5.30036 19.9958 5.34902 20.0192C5.39769 20.0426 5.44984 20.0546 5.5025 20.0546L6.70063 20.0546C6.75329 20.0546 6.80545 20.0426 6.85411 20.0192C6.90277 19.9958 6.94699 19.9615 6.98423 19.9182C7.02146 19.875 7.051 19.8236 7.07113 19.7671C7.09127 19.7106 7.10161 19.65 7.10157 19.5888ZM9.10157 4.37146L9.10157 19.4737C9.10157 19.6278 9.15424 19.7755 9.24801 19.8844C9.34178 19.9934 9.46896 20.0546 9.60157 20.0546L10.6016 20.0546C10.7342 20.0546 10.8614 19.9934 10.9551 19.8844C11.0489 19.7755 11.1016 19.6278 11.1016 19.4737L11.1016 11.9226L11.1016 4.37146C11.1016 4.21741 11.0489 4.06966 10.9551 3.96073C10.8614 3.8518 10.7342 3.7906 10.6016 3.7906L9.60157 3.7906C9.46896 3.7906 9.34178 3.8518 9.24801 3.96073C9.15424 4.06966 9.10157 4.21741 9.10157 4.37146ZM17.1016 4.37146L17.1016 19.4737C17.1016 19.6278 17.1542 19.7755 17.248 19.8844C17.3418 19.9934 17.469 20.0546 17.6016 20.0546L18.6016 20.0546C18.7342 20.0546 18.8614 19.9934 18.9551 19.8844C19.0489 19.7755 19.1016 19.6278 19.1016 19.4737L19.1016 4.37146C19.1016 4.2174 19.0489 4.06966 18.9551 3.96073C18.8614 3.8518 18.7342 3.7906 18.6016 3.7906L17.6016 3.7906C17.469 3.7906 17.3418 3.8518 17.248 3.96073C17.1542 4.06966 17.1016 4.2174 17.1016 4.37146Z" fill="#888B95"/>
</svg>
