<svg width="42" height="40" viewBox="0 0 42 40" fill="none" xmlns="http://www.w3.org/2000/svg">
<path fill-rule="evenodd" clip-rule="evenodd" d="M13 12.5C13.2761 12.5 13.5 12.7239 13.5 13V20.5H16.3621V13C16.3621 12.7239 16.5859 12.5 16.8621 12.5H20.1724C20.4486 12.5 20.6724 12.7239 20.6724 13V20.5H28.5V13C28.5 12.7239 28.7239 12.5 29 12.5C29.2761 12.5 29.5 12.7239 29.5 13V21C29.5 21.2761 29.2761 21.5 29 21.5H20.1724C19.8963 21.5 19.6724 21.2761 19.6724 21V13.5H17.3621V21C17.3621 21.2761 17.1382 21.5 16.8621 21.5H13C12.7239 21.5 12.5 21.2761 12.5 21V13C12.5 12.7239 12.7239 12.5 13 12.5Z" fill="black"/>
<path fill-rule="evenodd" clip-rule="evenodd" d="M20.9407 2.62396C21.1332 2.4553 21.4219 2.45918 21.6098 2.63295L31.3395 11.6329C31.5422 11.8205 31.5546 12.1368 31.3671 12.3395C31.1795 12.5422 30.8632 12.5546 30.6605 12.3671L21.2612 3.67274L11.3295 12.376C11.1219 12.558 10.806 12.5372 10.624 12.3295C10.442 12.1219 10.4628 11.806 10.6705 11.624L20.9407 2.62396Z" fill="black"/>
<path fill-rule="evenodd" clip-rule="evenodd" d="M26.5 4C26.5 3.72386 26.7239 3.5 27 3.5H29C29.2761 3.5 29.5 3.72386 29.5 4V7C29.5 7.27614 29.2761 7.5 29 7.5C28.7239 7.5 28.5 7.27614 28.5 7V4.5H27C26.7239 4.5 26.5 4.27614 26.5 4Z" fill="black"/>
<rect x="22.4089" y="13.418" width="4" height="4" fill="#FFEE00"/>
<path fill-rule="evenodd" clip-rule="evenodd" d="M26 14H23L23 17H26V14ZM23 13C22.4477 13 22 13.4477 22 14V17C22 17.5523 22.4477 18 23 18H26C26.5523 18 27 17.5523 27 17V14C27 13.4477 26.5523 13 26 13H23Z" fill="black"/>
<path d="M1.21 35.5C1.13667 35.5 1.07433 35.478 1.023 35.434C0.979 35.3827 0.957 35.3203 0.957 35.247V28.064C0.957 27.9833 0.979 27.921 1.023 27.877C1.07433 27.8257 1.13667 27.8 1.21 27.8H5.445C5.52567 27.8 5.588 27.8257 5.632 27.877C5.68333 27.921 5.709 27.9833 5.709 28.064V28.504C5.709 28.5773 5.68333 28.6397 5.632 28.691C5.588 28.735 5.52567 28.757 5.445 28.757H2.035V35.247C2.035 35.3203 2.00933 35.3827 1.958 35.434C1.90667 35.478 1.84433 35.5 1.771 35.5H1.21ZM4.97552 35.5C4.90219 35.5 4.83986 35.4743 4.78852 35.423C4.73719 35.3717 4.71152 35.3093 4.71152 35.236V34.829C4.71152 34.7557 4.73352 34.697 4.77752 34.653C4.82152 34.609 4.87652 34.587 4.94252 34.587C5.29452 34.5723 5.55486 34.323 5.72352 33.839C5.89952 33.3477 5.98752 32.5483 5.98752 31.441V30.033C5.98752 29.9597 6.00952 29.901 6.05352 29.857C6.10486 29.8057 6.16719 29.78 6.24052 29.78H9.73852C9.81186 29.78 9.87052 29.8057 9.91452 29.857C9.96586 29.901 9.99152 29.9597 9.99152 30.033V35.247C9.99152 35.3203 9.96586 35.3827 9.91452 35.434C9.87052 35.478 9.81186 35.5 9.73852 35.5H9.21052C9.13719 35.5 9.07852 35.478 9.03452 35.434C8.99052 35.3827 8.96852 35.3203 8.96852 35.247V30.66H6.98852V31.562C6.98852 32.9627 6.82719 33.971 6.50452 34.587C6.18186 35.1957 5.67219 35.5 4.97552 35.5ZM13.2264 35.61C12.867 35.61 12.5334 35.5367 12.2254 35.39C11.9174 35.2433 11.6717 35.0453 11.4884 34.796C11.3124 34.5393 11.2244 34.257 11.2244 33.949C11.2244 33.465 11.4224 33.069 11.8184 32.761C12.2217 32.4457 12.7644 32.2403 13.4464 32.145L15.0854 31.914V31.595C15.0854 30.847 14.6564 30.473 13.7984 30.473C13.4757 30.473 13.2117 30.5427 13.0064 30.682C12.801 30.814 12.647 30.9717 12.5444 31.155C12.5224 31.221 12.493 31.2687 12.4564 31.298C12.427 31.3273 12.383 31.342 12.3244 31.342H11.8514C11.7854 31.342 11.7267 31.32 11.6754 31.276C11.6314 31.2247 11.6094 31.166 11.6094 31.1C11.6167 30.924 11.6974 30.726 11.8514 30.506C12.0127 30.2787 12.2584 30.0843 12.5884 29.923C12.9184 29.7543 13.3254 29.67 13.8094 29.67C14.6307 29.67 15.221 29.8643 15.5804 30.253C15.9397 30.6343 16.1194 31.111 16.1194 31.683V35.247C16.1194 35.3203 16.0937 35.3827 16.0424 35.434C15.9984 35.478 15.9397 35.5 15.8664 35.5H15.3604C15.287 35.5 15.2247 35.478 15.1734 35.434C15.1294 35.3827 15.1074 35.3203 15.1074 35.247V34.774C14.946 35.0087 14.7114 35.2067 14.4034 35.368C14.0954 35.5293 13.703 35.61 13.2264 35.61ZM13.4574 34.785C13.934 34.785 14.3227 34.631 14.6234 34.323C14.9314 34.0077 15.0854 33.5567 15.0854 32.97V32.662L13.8094 32.849C13.2887 32.9223 12.8964 33.047 12.6324 33.223C12.3684 33.3917 12.2364 33.608 12.2364 33.872C12.2364 34.1653 12.3574 34.3927 12.5994 34.554C12.8414 34.708 13.1274 34.785 13.4574 34.785ZM17.9537 35.5C17.8804 35.5 17.8181 35.478 17.7667 35.434C17.7227 35.3827 17.7007 35.3203 17.7007 35.247V30.033C17.7007 29.9597 17.7227 29.901 17.7667 29.857C17.8181 29.8057 17.8804 29.78 17.9537 29.78H20.2417C20.9164 29.78 21.4297 29.9193 21.7817 30.198C22.1411 30.4693 22.3207 30.8433 22.3207 31.32C22.3207 31.6353 22.2621 31.881 22.1447 32.057C22.0274 32.2257 21.8477 32.3723 21.6057 32.497C21.8697 32.607 22.0751 32.7903 22.2217 33.047C22.3757 33.3037 22.4527 33.5787 22.4527 33.872C22.4527 34.4 22.2657 34.8033 21.8917 35.082C21.5251 35.3607 21.0044 35.5 20.3297 35.5H17.9537ZM20.1757 32.211C20.5351 32.211 20.8174 32.134 21.0227 31.98C21.2281 31.826 21.3307 31.6097 21.3307 31.331C21.3307 31.0597 21.2317 30.869 21.0337 30.759C20.8357 30.6417 20.5497 30.583 20.1757 30.583H18.7127V32.211H20.1757ZM20.2417 34.697C20.6084 34.697 20.8944 34.6273 21.0997 34.488C21.3124 34.3487 21.4187 34.1433 21.4187 33.872C21.4187 33.5787 21.3234 33.366 21.1327 33.234C20.9421 33.0947 20.6451 33.025 20.2417 33.025H18.7127V34.697H20.2417ZM24.1197 35.5C24.0464 35.5 23.9841 35.478 23.9327 35.434C23.8887 35.3827 23.8667 35.3203 23.8667 35.247V30.033C23.8667 29.9597 23.8887 29.901 23.9327 29.857C23.9841 29.8057 24.0464 29.78 24.1197 29.78H24.6477C24.7211 29.78 24.7797 29.8057 24.8237 29.857C24.8751 29.901 24.9007 29.9597 24.9007 30.033V32.145H27.8927V30.033C27.8927 29.9597 27.9147 29.901 27.9587 29.857C28.0101 29.8057 28.0724 29.78 28.1457 29.78H28.6627C28.7361 29.78 28.7947 29.8057 28.8387 29.857C28.8901 29.901 28.9157 29.9597 28.9157 30.033V35.247C28.9157 35.3203 28.8901 35.3827 28.8387 35.434C28.7947 35.478 28.7361 35.5 28.6627 35.5H28.1457C28.0724 35.5 28.0101 35.478 27.9587 35.434C27.9147 35.3827 27.8927 35.3203 27.8927 35.247V33.025H24.9007V35.247C24.9007 35.3203 24.8751 35.3827 24.8237 35.434C24.7797 35.478 24.7211 35.5 24.6477 35.5H24.1197ZM32.1649 35.61C31.8055 35.61 31.4719 35.5367 31.1639 35.39C30.8559 35.2433 30.6102 35.0453 30.4269 34.796C30.2509 34.5393 30.1629 34.257 30.1629 33.949C30.1629 33.465 30.3609 33.069 30.7569 32.761C31.1602 32.4457 31.7029 32.2403 32.3849 32.145L34.0239 31.914V31.595C34.0239 30.847 33.5949 30.473 32.7369 30.473C32.4142 30.473 32.1502 30.5427 31.9449 30.682C31.7395 30.814 31.5855 30.9717 31.4829 31.155C31.4609 31.221 31.4315 31.2687 31.3949 31.298C31.3655 31.3273 31.3215 31.342 31.2629 31.342H30.7899C30.7239 31.342 30.6652 31.32 30.6139 31.276C30.5699 31.2247 30.5479 31.166 30.5479 31.1C30.5552 30.924 30.6359 30.726 30.7899 30.506C30.9512 30.2787 31.1969 30.0843 31.5269 29.923C31.8569 29.7543 32.2639 29.67 32.7479 29.67C33.5692 29.67 34.1595 29.8643 34.5189 30.253C34.8782 30.6343 35.0579 31.111 35.0579 31.683V35.247C35.0579 35.3203 35.0322 35.3827 34.9809 35.434C34.9369 35.478 34.8782 35.5 34.8049 35.5H34.2989C34.2255 35.5 34.1632 35.478 34.1119 35.434C34.0679 35.3827 34.0459 35.3203 34.0459 35.247V34.774C33.8845 35.0087 33.6499 35.2067 33.3419 35.368C33.0339 35.5293 32.6415 35.61 32.1649 35.61ZM32.3959 34.785C32.8725 34.785 33.2612 34.631 33.5619 34.323C33.8699 34.0077 34.0239 33.5567 34.0239 32.97V32.662L32.7479 32.849C32.2272 32.9223 31.8349 33.047 31.5709 33.223C31.3069 33.3917 31.1749 33.608 31.1749 33.872C31.1749 34.1653 31.2959 34.3927 31.5379 34.554C31.7799 34.708 32.0659 34.785 32.3959 34.785ZM40.7312 29.78C40.8045 29.78 40.8632 29.8057 40.9072 29.857C40.9585 29.901 40.9842 29.9597 40.9842 30.033V35.247C40.9842 35.3203 40.9585 35.3827 40.9072 35.434C40.8632 35.478 40.8045 35.5 40.7312 35.5H40.2032C40.1299 35.5 40.0675 35.478 40.0162 35.434C39.9722 35.3827 39.9502 35.3203 39.9502 35.247V33.454H38.7732L37.5302 35.335C37.5009 35.379 37.4605 35.4193 37.4092 35.456C37.3579 35.4853 37.3029 35.5 37.2442 35.5H36.7162C36.6502 35.5 36.5952 35.478 36.5512 35.434C36.5072 35.39 36.4852 35.3387 36.4852 35.28C36.4852 35.2067 36.5109 35.1407 36.5622 35.082L37.7942 33.267C37.4129 33.135 37.1269 32.926 36.9362 32.64C36.7455 32.3467 36.6502 31.9947 36.6502 31.584C36.6502 30.968 36.8299 30.5133 37.1892 30.22C37.5559 29.9267 38.1059 29.78 38.8392 29.78H40.7312ZM39.9612 30.605H38.8062C38.3882 30.605 38.0839 30.6783 37.8932 30.825C37.7025 30.9717 37.6072 31.2247 37.6072 31.584C37.6072 31.8993 37.6989 32.1523 37.8822 32.343C38.0729 32.5337 38.3515 32.629 38.7182 32.629H39.9612V30.605Z" fill="black"/>
</svg>
